<mxfile host="app.diagrams.net" modified="2020-09-22T07:15:53.038Z" agent="5.0 (Windows NT 10.0; Win64; x64) AppleWebKit/537.36 (KHTML, like Gecko) Chrome/85.0.4183.102 Safari/537.36" etag="N5AZN1xA5spHPHEt6pou" version="13.3.9" type="github">
  <diagram name="Page-1" id="929967ad-93f9-6ef4-fab6-5d389245f69c">
    <mxGraphModel dx="1422" dy="762" grid="1" gridSize="10" guides="1" tooltips="1" connect="1" arrows="1" fold="1" page="1" pageScale="1.5" pageWidth="1169" pageHeight="826" background="none" math="0" shadow="0">
      <root>
        <mxCell id="0" style=";html=1;" />
        <mxCell id="1" style=";html=1;" parent="0" />
        <mxCell id="NAH84gE3DRuvGRZM38sN-5" value="Microservice A" style="html=1;dropTarget=0;" vertex="1" parent="1">
          <mxGeometry x="280" y="220" width="180" height="90" as="geometry" />
        </mxCell>
        <mxCell id="NAH84gE3DRuvGRZM38sN-6" value="" style="shape=component;jettyWidth=8;jettyHeight=4;" vertex="1" parent="NAH84gE3DRuvGRZM38sN-5">
          <mxGeometry x="1" width="20" height="20" relative="1" as="geometry">
            <mxPoint x="-27" y="7" as="offset" />
          </mxGeometry>
        </mxCell>
        <mxCell id="NAH84gE3DRuvGRZM38sN-14" style="edgeStyle=orthogonalEdgeStyle;rounded=0;orthogonalLoop=1;jettySize=auto;html=1;entryX=0.056;entryY=0.556;entryDx=0;entryDy=0;entryPerimeter=0;" edge="1" parent="1" source="NAH84gE3DRuvGRZM38sN-7" target="NAH84gE3DRuvGRZM38sN-5">
          <mxGeometry relative="1" as="geometry" />
        </mxCell>
        <mxCell id="NAH84gE3DRuvGRZM38sN-7" value="Actor" style="shape=umlActor;verticalLabelPosition=bottom;verticalAlign=top;html=1;" vertex="1" parent="1">
          <mxGeometry x="90" y="240" width="30" height="60" as="geometry" />
        </mxCell>
        <mxCell id="NAH84gE3DRuvGRZM38sN-8" value="Microservice B" style="html=1;dropTarget=0;" vertex="1" parent="1">
          <mxGeometry x="650" y="225" width="180" height="90" as="geometry" />
        </mxCell>
        <mxCell id="NAH84gE3DRuvGRZM38sN-9" value="" style="shape=component;jettyWidth=8;jettyHeight=4;" vertex="1" parent="NAH84gE3DRuvGRZM38sN-8">
          <mxGeometry x="1" width="20" height="20" relative="1" as="geometry">
            <mxPoint x="-27" y="7" as="offset" />
          </mxGeometry>
        </mxCell>
        <mxCell id="NAH84gE3DRuvGRZM38sN-10" value="Microservice C" style="html=1;dropTarget=0;" vertex="1" parent="1">
          <mxGeometry x="990" y="220" width="180" height="90" as="geometry" />
        </mxCell>
        <mxCell id="NAH84gE3DRuvGRZM38sN-11" value="" style="shape=component;jettyWidth=8;jettyHeight=4;" vertex="1" parent="NAH84gE3DRuvGRZM38sN-10">
          <mxGeometry x="1" width="20" height="20" relative="1" as="geometry">
            <mxPoint x="-27" y="7" as="offset" />
          </mxGeometry>
        </mxCell>
        <mxCell id="NAH84gE3DRuvGRZM38sN-12" value="Microservice Alfa" style="html=1;dropTarget=0;" vertex="1" parent="1">
          <mxGeometry x="280" y="390" width="180" height="90" as="geometry" />
        </mxCell>
        <mxCell id="NAH84gE3DRuvGRZM38sN-13" value="" style="shape=component;jettyWidth=8;jettyHeight=4;" vertex="1" parent="NAH84gE3DRuvGRZM38sN-12">
          <mxGeometry x="1" width="20" height="20" relative="1" as="geometry">
            <mxPoint x="-27" y="7" as="offset" />
          </mxGeometry>
        </mxCell>
        <mxCell id="NAH84gE3DRuvGRZM38sN-15" style="edgeStyle=orthogonalEdgeStyle;rounded=0;orthogonalLoop=1;jettySize=auto;html=1;entryX=0.056;entryY=0.556;entryDx=0;entryDy=0;entryPerimeter=0;" edge="1" parent="1">
          <mxGeometry relative="1" as="geometry">
            <mxPoint x="470" y="265" as="sourcePoint" />
            <mxPoint x="600.0799999999999" y="264.49999999999994" as="targetPoint" />
            <Array as="points">
              <mxPoint x="535" y="265" />
            </Array>
          </mxGeometry>
        </mxCell>
        <mxCell id="NAH84gE3DRuvGRZM38sN-16" value="Machine Access Tokern (A)" style="text;html=1;strokeColor=none;fillColor=none;align=center;verticalAlign=middle;whiteSpace=wrap;rounded=0;" vertex="1" parent="1">
          <mxGeometry x="460" y="190" width="180" height="20" as="geometry" />
        </mxCell>
        <mxCell id="NAH84gE3DRuvGRZM38sN-17" value="User ID-Token" style="text;html=1;strokeColor=none;fillColor=none;align=center;verticalAlign=middle;whiteSpace=wrap;rounded=0;" vertex="1" parent="1">
          <mxGeometry x="480" y="210" width="130" height="20" as="geometry" />
        </mxCell>
        <mxCell id="NAH84gE3DRuvGRZM38sN-18" value="Machine Access Tokern (B)" style="text;html=1;strokeColor=none;fillColor=none;align=center;verticalAlign=middle;whiteSpace=wrap;rounded=0;" vertex="1" parent="1">
          <mxGeometry x="820" y="180" width="180" height="20" as="geometry" />
        </mxCell>
        <mxCell id="NAH84gE3DRuvGRZM38sN-19" value="User ID-Token" style="text;html=1;strokeColor=none;fillColor=none;align=center;verticalAlign=middle;whiteSpace=wrap;rounded=0;" vertex="1" parent="1">
          <mxGeometry x="840" y="200" width="130" height="20" as="geometry" />
        </mxCell>
        <mxCell id="NAH84gE3DRuvGRZM38sN-20" style="edgeStyle=orthogonalEdgeStyle;rounded=0;orthogonalLoop=1;jettySize=auto;html=1;entryX=0.056;entryY=0.556;entryDx=0;entryDy=0;entryPerimeter=0;" edge="1" parent="1">
          <mxGeometry relative="1" as="geometry">
            <mxPoint x="840" y="250.5" as="sourcePoint" />
            <mxPoint x="970.0799999999999" y="250" as="targetPoint" />
            <Array as="points">
              <mxPoint x="905" y="250.5" />
            </Array>
          </mxGeometry>
        </mxCell>
        <mxCell id="NAH84gE3DRuvGRZM38sN-22" value="" style="endArrow=classic;html=1;exitX=1;exitY=0.5;exitDx=0;exitDy=0;strokeColor=#3333FF;" edge="1" parent="1" source="NAH84gE3DRuvGRZM38sN-12">
          <mxGeometry width="50" height="50" relative="1" as="geometry">
            <mxPoint x="530" y="400" as="sourcePoint" />
            <mxPoint x="660" y="330" as="targetPoint" />
          </mxGeometry>
        </mxCell>
        <mxCell id="NAH84gE3DRuvGRZM38sN-23" value="Machine Access Tokern (Alfa)" style="text;html=1;strokeColor=none;fillColor=none;align=center;verticalAlign=middle;whiteSpace=wrap;rounded=0;fontColor=#3333FF;" vertex="1" parent="1">
          <mxGeometry x="520" y="415" width="180" height="20" as="geometry" />
        </mxCell>
        <mxCell id="NAH84gE3DRuvGRZM38sN-24" value="Machine ID-Token (Alfa)" style="text;html=1;strokeColor=none;fillColor=none;align=center;verticalAlign=middle;whiteSpace=wrap;rounded=0;fontColor=#3333FF;" vertex="1" parent="1">
          <mxGeometry x="510" y="435" width="180" height="20" as="geometry" />
        </mxCell>
        <mxCell id="NAH84gE3DRuvGRZM38sN-25" value="Machine Access Tokern (B)" style="text;html=1;strokeColor=none;fillColor=none;align=center;verticalAlign=middle;whiteSpace=wrap;rounded=0;fontColor=#3333FF;" vertex="1" parent="1">
          <mxGeometry x="830" y="330" width="180" height="20" as="geometry" />
        </mxCell>
        <mxCell id="NAH84gE3DRuvGRZM38sN-26" value="Machine ID-Token (B)" style="text;html=1;strokeColor=none;fillColor=none;align=center;verticalAlign=middle;whiteSpace=wrap;rounded=0;fontColor=#3333FF;" vertex="1" parent="1">
          <mxGeometry x="820" y="350" width="180" height="20" as="geometry" />
        </mxCell>
        <mxCell id="NAH84gE3DRuvGRZM38sN-27" value="" style="endArrow=classic;html=1;exitX=1;exitY=0.5;exitDx=0;exitDy=0;strokeColor=#3333FF;" edge="1" parent="1">
          <mxGeometry width="50" height="50" relative="1" as="geometry">
            <mxPoint x="840" y="305" as="sourcePoint" />
            <mxPoint x="980" y="300" as="targetPoint" />
          </mxGeometry>
        </mxCell>
      </root>
    </mxGraphModel>
  </diagram>
</mxfile>
